# xmcd CD database file
#
# Track frame offsets:
#	150
#	21317
#	46570
#	62155
#	84605
#	131725
#	144497
#	161675
#	190982
#	222012
#	246712
#	270777
#
# Disc length: 3807 seconds
#
# Revision: 1
# Processed by: cddbd v1.5.2PL0 Copyright (c) Steve Scherf et al.
# Submitted via: CDex 1.51
#
DISCID=aa0edd0c
DTITLE=YUKARI INOUE TRIO - Hands On Universe
DYEAR=2007
DGENRE=Jazz
TTITLE0=Tangerine Clouds
TTITLE1=Jupitar
TTITLE2=Hurry Portar
TTITLE3=Minor Swing
TTITLE4=Ordinary World
TTITLE5=From The Day Of Birth
TTITLE6=White Black
TTITLE7=Rhapsody For David
TTITLE8=Vera Cruz
TTITLE9=Blame It On My Youth
TTITLE10=Days Of Wine And Roses
TTITLE11=Furusat
EXTD=YEAR: 2007
EXTT0=
EXTT1=
EXTT2=
EXTT3=
EXTT4=
EXTT5=
EXTT6=
EXTT7=
EXTT8=
EXTT9=
EXTT10=
EXTT11=
PLAYORDER=
